<svg width="23" height="23" fill="none" xmlns="http://www.w3.org/2000/svg"><path d="M22.484 18.177l-3.552-3.553c-.707-.704-1.879-.683-2.61.05l-1.79 1.789a52.15 52.15 0 01-.354-.197c-1.13-.626-2.676-1.484-4.304-3.113-1.632-1.632-2.491-3.181-3.12-4.312-.066-.12-.129-.235-.192-.345l1.201-1.2.59-.59c.734-.734.754-1.905.048-2.612L4.85.541c-.705-.705-1.878-.684-2.61.05L1.236 1.597l.027.028A5.789 5.789 0 00.44 3.08a6.033 6.033 0 00-.367 1.475c-.47 3.889 1.307 7.442 6.13 12.264 6.665 6.666 12.037 6.162 12.268 6.137a6 6 0 001.48-.371 5.769 5.769 0 001.45-.822l.022.02 1.014-.993c.732-.734.753-1.905.047-2.613z" fill="#fff"/></svg>