<svg xmlns="http://www.w3.org/2000/svg" xmlns:xlink="http://www.w3.org/1999/xlink"><symbol id="arrow" viewBox="0 0 11 11">
	<path d="M3.39167 0L2.10834 1.28333L6.325 5.5L2.10834 9.71667L3.39167 11L8.89167 5.5L3.39167 0Z"/>
</symbol><symbol id="close" viewBox="0 0 15 15"><path d="M14.8206 0.177979C14.5832 -0.0593262 14.1994 -0.0593262 13.9651 0.177979L0.177978 13.9651C-0.0593261 14.2024 -0.0593261 14.5862 0.177978 14.8205C0.295166 14.9377 0.45044 14.9992 0.605713 14.9992C0.760983 14.9992 0.916262 14.9407 1.03345 14.8205L14.8206 1.03345C15.0579 0.796139 15.0579 0.412354 14.8206 0.177979Z"/><path d="M14.8206 13.9651L1.03345 0.177979C0.796141 -0.0593262 0.412353 -0.0593262 0.177978 0.177979C-0.0593261 0.412354 -0.0593261 0.796139 0.177978 1.03345L13.9651 14.8205C14.0823 14.9377 14.2375 14.9992 14.3928 14.9992C14.5481 14.9992 14.7034 14.9407 14.8206 14.8205C15.0579 14.5862 15.0579 14.2024 14.8206 13.9651Z"/></symbol><symbol id="delivery" viewBox="0 0 60 60"><path d="M59.0242 28.5444C58.4004 27.8009 57.5495 27.3178 56.574 27.1372L56.1158 20.9185C56.5678 20.9142 56.9532 20.5886 57.032 20.1425L57.2087 19.1404C57.3981 18.0663 57.1339 17.006 56.4839 16.2315C55.8347 15.4578 54.8842 15.0316 53.8073 15.0316H46.9104L47.2461 13.1279C47.3414 12.5872 47.2034 12.0473 46.8675 11.647C46.5349 11.2507 46.0349 11.0233 45.4956 11.0233H11.5458C10.5418 11.0233 9.61769 11.8044 9.4418 12.8018L6.43816 29.837C6.34816 30.3479 6.6893 30.8351 7.20023 30.9251C7.25531 30.9349 7.31016 30.9396 7.36441 30.9396C7.81172 30.9396 8.20816 30.6188 8.28844 30.1631L11.2922 13.1279C11.312 13.0157 11.4564 12.9021 11.5457 12.9021L45.3779 12.9022L42.3919 29.837C42.3018 30.3479 42.6429 30.8351 43.1539 30.9251C43.6643 31.015 44.1521 30.674 44.2421 30.1631L44.4587 28.9351H55.693C55.6934 28.9351 55.6938 28.9351 55.6943 28.9351C55.6948 28.9351 55.6952 28.9351 55.6956 28.9351C56.4721 28.9352 57.143 29.2252 57.5849 29.7518C57.889 30.1142 58.0664 30.5654 58.1091 31.0645H54.9885C54.5325 31.0645 54.1425 31.3918 54.0633 31.8409L53.71 33.845C53.5676 34.6524 53.7687 35.4525 54.2616 36.0399C54.7477 36.6194 55.4856 36.9516 56.2859 36.9516H57.1704L56.4415 41.0852H53.9612C53.798 40.2584 53.4407 39.498 52.8991 38.8529C51.9383 37.7076 50.5243 37.077 48.918 37.077C46.3424 37.077 43.8574 38.7622 42.6941 41.0853H42.3164L43.5355 34.1714C43.6255 33.6604 43.2845 33.1732 42.7734 33.0832C42.2627 32.9929 41.7752 33.3342 41.6852 33.8452L40.4086 41.0854H23.0177C22.8545 40.2587 22.4972 39.4984 21.9557 38.8531C20.9947 37.7078 19.5809 37.0773 17.9745 37.0773C15.3988 37.0773 12.9138 38.7624 11.7505 41.0855L6.36246 41.0854L6.73793 38.9561H10.9601C11.4789 38.9561 11.8996 38.5355 11.8996 38.0166C11.8996 37.4978 11.479 37.0771 10.9601 37.0771H0.939492C0.420703 37.0771 0 37.4977 0 38.0166C0 38.5354 0.420586 38.9561 0.939492 38.9561H4.83023L4.49449 40.8598C4.39922 41.4005 4.53727 41.9404 4.87313 42.3407C5.2057 42.7371 5.70574 42.9644 6.24504 42.9644H11.1404C10.8858 44.558 11.2685 46.0593 12.2265 47.2009C13.1875 48.3461 14.6013 48.9767 16.2077 48.9767C19.4051 48.9767 22.464 46.3809 23.0266 43.19C23.0399 43.1144 23.0503 43.0393 23.0609 42.9643H42.084C41.8293 44.5578 42.212 46.0591 43.1701 47.2007C44.1311 48.346 45.5449 48.9766 47.1513 48.9766C50.3487 48.9766 53.4076 46.3808 53.9702 43.1899C53.9835 43.1143 53.9939 43.0392 54.0045 42.9642H57.23C57.686 42.9642 58.076 42.6369 58.1552 42.1878L59.9222 32.1671C60.162 30.8069 59.8431 29.5203 59.0242 28.5444ZM44.7902 27.0566L45.8725 20.9189H54.2321L54.6844 27.0566H44.7902ZM55.3583 18.8143L55.3185 19.04H46.2036L46.5791 16.9106H53.8073C54.3191 16.9106 54.7586 17.0983 55.0445 17.4392C55.341 17.7924 55.4525 18.2806 55.3583 18.8143ZM21.1764 42.864C20.7648 45.1987 18.5358 47.098 16.2077 47.098C15.1664 47.098 14.2636 46.7056 13.6658 45.9934C13.0508 45.2603 12.8164 44.265 13.0059 43.1903C13.4176 40.8556 15.6465 38.9564 17.9746 38.9564C19.0159 38.9564 19.9187 39.3487 20.5165 40.0611C21.1315 40.7939 21.3659 41.7894 21.1764 42.864ZM52.1198 42.864C51.7082 45.1987 49.4793 47.098 47.1512 47.098C46.1099 47.098 45.2071 46.7056 44.6093 45.9932C43.9943 45.2602 43.7599 44.2648 43.9494 43.1902C44.361 40.8555 46.59 38.9562 48.918 38.9562C49.9593 38.9562 50.8622 39.3486 51.46 40.061C52.075 40.7939 52.3093 41.7894 52.1198 42.864ZM57.5017 35.0732H56.2859V35.0731C56.0352 35.0731 55.8329 34.9899 55.7009 34.8327C55.5639 34.6693 55.5138 34.4346 55.5602 34.1717L55.7768 32.9439H57.8772L57.5017 35.0732Z" fill="black"/><path d="M18.6398 41.7092C18.3073 41.3129 17.8072 41.0856 17.2678 41.0856C16.2639 41.0856 15.3397 41.8666 15.1638 42.864C15.0686 43.4047 15.2066 43.9446 15.5425 44.3449C15.8751 44.7412 16.3751 44.9686 16.9144 44.9686C17.9183 44.9686 18.8425 44.1874 19.0184 43.1903C19.1138 42.6494 18.9758 42.1097 18.6398 41.7092Z" fill="black"/> <path d="M49.5833 41.7092C49.2506 41.3129 48.7506 41.0856 48.2114 41.0856C47.2075 41.0856 46.2833 41.8666 46.1075 42.8639C46.0123 43.4047 46.1501 43.9445 46.4861 44.3449C46.8186 44.7412 47.3187 44.9686 47.858 44.9686C48.8619 44.9686 49.7861 44.1874 49.962 43.1903C50.0573 42.6494 49.9193 42.1097 49.5833 41.7092Z" fill="black"/><path d="M37.8954 37.0773H25.9911C25.4723 37.0773 25.0516 37.4979 25.0516 38.0168C25.0516 38.5356 25.4722 38.9563 25.9911 38.9563H37.8954C38.4142 38.9563 38.8349 38.5357 38.8349 38.0168C38.8348 37.4979 38.4142 37.0773 37.8954 37.0773Z" fill="black"/><path d="M20.9808 33.0691H3.65038C3.13159 33.0691 2.71089 33.4897 2.71089 34.0086C2.71089 34.5274 3.13136 34.9481 3.65038 34.9481H20.9808C21.4996 34.9481 21.9203 34.5275 21.9203 34.0086C21.9203 33.4897 21.4997 33.0691 20.9808 33.0691Z" fill="#A07052"/><path d="M38.9211 29.2894L35.443 26.2832C35.0504 25.9441 34.4572 25.9871 34.1179 26.3797C33.7785 26.7722 33.8217 27.3655 34.2143 27.7048L35.7832 29.0609H11.9622C11.4434 29.0609 11.0227 29.4815 11.0227 30.0004C11.0227 30.5192 11.4432 30.9399 11.9622 30.9399H35.1874L33.2497 32.2236C32.8171 32.51 32.6988 33.093 32.9854 33.5255C33.1661 33.7985 33.4649 33.9462 33.7693 33.9462C33.9475 33.9462 34.1277 33.8956 34.2873 33.7898L38.8256 30.7836C39.0708 30.6214 39.2256 30.3537 39.2443 30.0603C39.2631 29.7667 39.1436 29.4815 38.9211 29.2894Z" fill="#A07052"/></symbol><symbol id="eco" viewBox="0 0 60 60">
<path d="M49.5623 14.4375C45.4051 9.21209 39.4621 5.91859 32.8278 5.1636C26.5182 4.44572 20.3012 6.10541 15.2121 9.84618L13.0127 7.08296C12.7982 6.81353 12.4576 6.6772 12.1165 6.72358C11.7753 6.77017 11.4839 6.99302 11.3496 7.31011L5.3512 21.4679C5.21155 21.7975 5.26341 22.1769 5.48627 22.4569C5.70912 22.737 6.06762 22.8725 6.41958 22.8106L21.5636 20.145C21.9028 20.0854 22.1855 19.8514 22.3075 19.5293C22.4295 19.2072 22.3728 18.8447 22.1584 18.5753L19.9878 15.8483C24.9065 12.3654 31.289 11.6773 36.8773 14.0848C37.3725 14.2981 37.947 14.0697 38.1604 13.5745C38.3738 13.0791 38.1453 12.5046 37.65 12.2913C31.0985 9.46864 23.5656 10.471 17.9906 14.9068C17.788 15.068 17.6576 15.3032 17.6283 15.5606C17.599 15.8179 17.6732 16.0764 17.8346 16.2791L19.6074 18.5064L7.85016 20.5759L12.5073 9.58387L14.2804 11.8116C14.6162 12.2334 15.2303 12.3031 15.6523 11.9677C25.5974 4.05675 40.1236 5.71009 48.0341 15.6534C51.7363 20.3056 53.4719 26.076 52.9592 31.9762L49.1053 32.6552C49.8339 27.4291 48.4065 22.1543 45.0946 17.9915C44.7588 17.5692 44.1445 17.4995 43.7225 17.8353C43.3005 18.1711 43.2305 18.7854 43.5664 19.2073C46.8109 23.2855 48.043 28.551 46.9466 33.6537C46.8783 33.9715 46.9725 34.3023 47.198 34.5363C47.3838 34.729 47.6384 34.8353 47.9012 34.8353C47.9575 34.8353 48.0142 34.8304 48.0707 34.8205L54.0248 33.7715C54.4494 33.6966 54.7747 33.3522 54.8251 32.9239C55.6105 26.2542 53.7414 19.6889 49.5623 14.4375Z" fill="black"/>
<path d="M53.5811 37.1901L38.4371 39.853C38.0979 39.9125 37.8153 40.1465 37.6931 40.4684C37.5711 40.7904 37.6276 41.153 37.842 41.4224L40.013 44.1521C37.2738 46.0917 34.1357 47.1257 30.9767 47.2995L29.0236 47.2976C24.2615 47.0263 19.63 44.8096 16.434 40.7934C13.1891 36.7146 11.9571 31.4492 13.0539 26.3472C13.1221 26.0295 13.0279 25.6987 12.8026 25.4646C12.5772 25.2306 12.25 25.1239 11.9301 25.1803L5.97623 26.2266C5.55142 26.3012 5.22583 26.6457 5.17544 27.0741C4.38998 33.7454 6.25905 40.3117 10.4384 45.5635C14.5958 50.7878 20.5388 54.081 27.1727 54.8362C28.1352 54.9458 29.0951 55.0001 30.0496 55C35.3526 54.9999 40.476 53.3246 44.7885 50.1547L46.9879 52.9179C47.2024 53.1874 47.5431 53.3238 47.8841 53.2772C48.2253 53.2306 48.5167 53.0078 48.651 52.6907L54.6493 38.5329C54.789 38.2034 54.7371 37.824 54.5144 37.544C54.2916 37.264 53.9336 37.1283 53.5811 37.1901ZM47.4933 50.4169L45.7201 48.1891C45.3844 47.7673 44.7703 47.6975 44.3482 48.0331C40.1156 51.4 35.0539 53.0341 30.0242 53.0339C23.2377 53.0335 16.5104 50.0575 11.9664 44.3473C8.26425 39.6952 6.52868 33.9233 7.04129 28.0222L10.8951 27.3449C10.1657 32.5708 11.5932 37.8455 14.9059 42.0093C18.7093 46.7889 24.3388 49.2796 30.0199 49.2793C34.2292 49.2792 38.4673 47.9116 42.0097 45.0939C42.4318 44.7583 42.5018 44.144 42.1662 43.722L40.3925 41.4919L52.1505 39.4245L47.4933 50.4169Z" fill="black"/>
<path d="M30.9768 47.2995V34.464C31.9832 34.7133 32.9785 34.8378 33.9463 34.8378C35.7677 34.8378 37.4912 34.3978 39.0036 33.5244C41.6641 31.9883 43.4888 29.2178 44.1416 25.7234C44.23 25.2503 43.9605 24.7833 43.5067 24.6232C40.1529 23.4396 36.8406 23.6339 34.1797 25.1697C32.3594 26.2203 30.9306 27.8493 30.0002 29.8927C29.0699 27.8493 27.641 26.2203 25.8208 25.1697C23.1599 23.6339 19.8475 23.4396 16.4938 24.6232C16.04 24.7833 15.7706 25.2503 15.8588 25.7234C16.5118 29.2178 18.3365 31.9883 20.9969 33.5244C22.5095 34.3978 24.2326 34.8378 26.0542 34.8378C27.0218 34.8378 28.0173 34.7132 29.0237 34.4639V47.2976L30.9768 47.2995ZM35.1561 26.8612C37.1035 25.7373 39.5194 25.5124 42.0344 26.2064C41.377 28.7299 39.9742 30.7091 38.0271 31.8333C36.0795 32.9578 33.6631 33.1833 31.1478 32.4905C31.8052 29.9651 33.2085 27.9853 35.1561 26.8612ZM21.9736 31.8332C20.0266 30.7091 18.6236 28.7298 17.9663 26.2063C20.4813 25.5124 22.8972 25.7373 24.8446 26.8611C26.7923 27.9852 28.1954 29.9651 28.8529 32.4903C26.3375 33.1832 23.9211 32.9577 21.9736 31.8332Z" fill="#A07052"/>
<path d="M41.1066 16.4142C41.3566 16.4142 41.6068 16.3185 41.7977 16.1275C42.1789 15.7462 42.1776 15.1265 41.7963 14.7452C41.415 14.3639 40.7967 14.3639 40.4153 14.7452C40.0341 15.1265 40.0341 15.7448 40.4153 16.1261L40.4181 16.1289C40.6085 16.3193 40.8574 16.4142 41.1066 16.4142V16.4142Z" fill="black"/>
</symbol><symbol id="money" viewBox="0 0 67 43">
<path d="M40.6093 40.675C40.924 40.7125 41.1632 40.75 41.3898 40.75C44.0585 40.75 46.7272 40.7625 49.3833 40.75C50.5288 40.75 50.8561 40.425 50.8687 39.2875C50.8813 37.325 50.8687 35.35 50.8687 33.375C50.8687 33.075 50.8058 32.7125 50.9317 32.475C51.0827 32.1875 51.4226 31.825 51.6618 31.825C51.9135 31.8375 52.3541 32.25 52.3541 32.5C52.3919 35.05 52.4422 37.5875 52.3289 40.1375C52.266 41.4 51.1079 42.225 49.7106 42.2375C47.2433 42.2625 44.7886 42.2625 42.3213 42.2625C29.5316 42.2625 16.7546 42.2625 3.96494 42.25C1.548 42.25 0.679414 41.375 0.679414 39C0.679414 29.975 0.679414 20.9375 0.679414 11.9125C0.679414 11.6125 0.591296 11.25 0.717179 11.0125C0.868237 10.7375 1.20812 10.4375 1.49765 10.4C1.68647 10.375 2.03894 10.75 2.13965 11.0125C2.25294 11.35 2.19 11.75 2.19 12.125C2.19 21.0125 2.19 29.9125 2.19 38.8C2.19 40.55 2.37883 40.75 4.116 40.75C6.60847 40.75 9.11353 40.725 11.606 40.7625C12.3235 40.775 12.5375 40.55 12.5375 39.8375C12.5249 27.5875 12.5124 15.325 12.5375 3.07502C12.5375 2.28752 12.2732 2.10002 11.5305 2.11252C8.9373 2.15002 6.33153 2.12502 3.73836 2.12502C2.52988 2.12502 2.21518 2.43752 2.19 3.62502C2.16483 4.98752 2.19 6.33752 2.17741 7.70002C2.17741 8.23753 2.11447 8.78752 1.39694 8.76252C0.692001 8.73752 0.654237 8.20002 0.654237 7.65002C0.666826 6.26252 0.641649 4.86252 0.654237 3.47502C0.666826 1.61252 1.68647 0.600024 3.59988 0.600024C8.96247 0.587524 14.3376 0.587524 19.7002 0.587524C29.5065 0.587524 39.3253 0.587524 49.1315 0.600024C51.4478 0.600024 52.3541 1.52502 52.3541 3.81252C52.3541 12.1 52.3541 20.375 52.3541 28.6625C52.3541 28.9625 52.4297 29.3125 52.3164 29.5625C52.1905 29.825 51.8506 30.1875 51.6492 30.1625C51.3722 30.125 51.0324 29.8125 50.8939 29.5375C50.7554 29.2625 50.8309 28.875 50.8309 28.5375C50.8309 20.3875 50.8309 12.2375 50.8309 4.10003C50.8309 2.28752 50.6421 2.11252 48.842 2.11252C46.3747 2.11252 43.92 2.12502 41.4527 2.10002C40.7981 2.08752 40.4708 2.22502 40.4708 2.98752C40.496 15.3375 40.4834 27.7 40.4834 40.05C40.5464 40.2375 40.5841 40.4 40.6093 40.675ZM14.0859 40.6875C22.4193 40.6875 30.6772 40.6875 38.9602 40.6875C38.9602 27.8125 38.9602 15.0125 38.9602 2.21252C30.6268 2.21252 22.3815 2.21252 14.0859 2.21252C14.0859 15.05 14.0859 27.8 14.0859 40.6875Z" fill="black"/>
<path d="M28.6631 13.4251C29.1414 13.2501 29.4939 13.1126 29.8464 12.9876C31.0297 12.5626 31.4451 12.9126 31.2311 14.1626C31.08 15.0876 30.9038 16.0251 30.7024 17.0876C30.9541 16.9751 31.08 16.9376 31.1681 16.8626C32.4018 15.8626 32.4899 15.8876 33.22 17.2501C33.3333 17.4626 33.7361 17.6501 33.9879 17.6376C34.5921 17.6001 35.1964 17.4001 35.8006 17.3126C36.7951 17.1751 37.1601 17.6376 36.7951 18.5501C36.5181 19.2376 36.2034 19.9126 35.9013 20.6251C36.1908 20.8001 36.4174 20.9501 36.6566 21.0751C37.8399 21.7251 37.8777 22.2001 36.8202 22.9626C35.574 23.8626 34.3404 24.7626 33.0689 25.6126C32.5025 25.9876 32.3137 26.3376 32.5654 27.0251C32.7794 27.6126 32.7165 28.2876 32.7794 28.9251C32.1626 28.9001 31.5332 28.9376 30.9289 28.8126C29.7708 28.5751 28.6253 28.2376 27.3413 27.9126C27.3413 29.0501 27.3665 30.0501 27.3287 31.0626C27.3161 31.7001 27.5679 32.6501 26.5734 32.6501C25.4908 32.6501 25.7929 31.6626 25.7678 31.0001C25.73 30.0251 25.7552 29.0501 25.7552 27.9001C24.3075 28.2751 22.9732 28.6501 21.6262 28.9376C21.2108 29.0251 20.5562 29.0501 20.3422 28.8126C20.1282 28.5751 20.166 27.8876 20.3422 27.5376C20.8961 26.4626 20.5814 25.8376 19.5869 25.2501C18.4792 24.6001 17.4595 23.7751 16.4021 23.0251C15.1685 22.1501 15.2062 21.7001 16.5783 20.9751C16.7546 20.8751 16.9308 20.7751 17.2204 20.6126C16.9056 19.9001 16.5784 19.2001 16.2888 18.4876C15.9489 17.6251 16.3014 17.1626 17.2204 17.2626C17.5602 17.3001 17.9001 17.3751 18.2274 17.4501C19.0708 17.6501 19.8765 17.9126 20.1534 16.6376C20.2667 16.0876 20.8206 16.0126 21.3241 16.3376C21.6262 16.5376 21.9032 16.7751 22.4067 17.1751C22.2053 16.0501 22.0039 15.1626 21.9032 14.2876C21.8528 13.8501 21.8402 13.2251 22.092 13.0001C22.3312 12.7876 22.948 12.9501 23.3886 13.0251C23.7159 13.0751 24.0306 13.2376 24.446 13.3876C24.8236 12.6376 25.1384 11.8876 25.5538 11.2001C25.7929 10.8001 26.1958 10.4876 26.5231 10.1376C26.8755 10.5001 27.3035 10.8251 27.5679 11.2376C27.9707 11.9376 28.2728 12.6626 28.6631 13.4251ZM31.9108 18.2876C31.2185 18.9001 30.6898 19.4251 30.0855 19.8626C29.8338 20.0501 29.368 20.1376 29.0911 20.0376C28.8897 19.9626 28.7889 19.5001 28.7638 19.1876C28.7386 18.9001 28.8519 18.5876 28.9022 18.2876C29.1037 17.1751 29.3177 16.0501 29.5317 14.8876C27.8322 15.2126 27.8322 15.2126 27.1021 13.7501C26.9511 13.4501 26.7748 13.1501 26.5734 12.8001C25.7174 13.8501 25.8055 15.8876 23.5522 14.8126C23.8292 16.2626 24.0935 17.5251 24.2698 18.7876C24.3201 19.2001 24.1061 19.6501 24.0054 20.0751C23.59 19.9376 23.1116 19.8876 22.7592 19.6501C22.2305 19.3001 21.7899 18.8251 21.45 18.5126C20.8961 18.8501 20.4933 19.2626 20.0401 19.3376C19.5114 19.4251 18.9449 19.2126 18.3407 19.1251C18.9575 21.2876 18.9575 21.2876 17.9001 22.2751C19.2093 23.2126 20.5059 24.1501 21.8151 25.0501C22.3815 25.4376 22.5829 25.8626 22.2934 26.5126C22.2053 26.7001 22.2053 26.9376 22.1172 27.4126C25.088 26.0751 27.9455 26.1251 30.9541 27.2501C29.9848 25.6126 31.1555 25.1001 32.0745 24.4501C33.1193 23.7126 34.1641 22.9626 35.3726 22.1001C33.0564 21.4126 34.6551 20.2126 34.6928 19.1751C33.7865 18.9501 32.4521 20.1501 31.9108 18.2876Z" fill="#A07052"/>
<path d="M65.1941 22.4H32.15V42.2625H65.1941V22.4Z" fill="white"/>
<path d="M64.9801 21.55H32.1248C31.8353 21.55 31.6339 21.775 31.6087 22.0625V41.7875C31.6087 42.075 31.8353 42.275 32.1248 42.3H51.5862C51.5737 42.35 52.0268 41.325 51.9765 41.25C51.9765 41.2625 51.9639 41.2625 51.9639 41.275H32.6284V22.5375H64.4892V41.2625H63.0667C63.0289 41.175 63.4444 42.3125 63.4444 42.2875H64.9927C65.2822 42.2875 65.5088 42.0625 65.5088 41.775V22.05C65.4837 21.775 65.2571 21.55 64.9801 21.55Z" fill="black"/>
<path d="M63.2933 26.625C61.6694 26.625 60.3728 25.325 60.3476 23.7C60.3476 23.4125 60.1211 23.1875 59.8315 23.1875H37.2608C36.9713 23.1875 36.7699 23.4125 36.7447 23.7C36.7447 25.3125 35.4355 26.6 33.7991 26.625C33.5095 26.625 33.3081 26.85 33.2829 27.1125V36.6125C33.2829 36.9 33.5095 37.1 33.7991 37.125C35.4229 37.125 36.7195 38.425 36.7447 40.05C36.7447 40.3375 36.9713 40.5375 37.2608 40.5625H52.2282C52.2408 40.5625 52.266 40.5625 52.2786 40.5625H52.3667C52.3667 40.5625 52.8073 40.575 52.9583 40.5875C53.0213 40.6 53.2731 39.55 53.2605 39.5625H37.714C37.4874 37.8 36.0901 36.4125 34.3152 36.1875V27.6125C36.0901 27.3875 37.4874 26 37.714 24.2375H59.3406C59.5672 26 60.9645 27.3875 62.7394 27.6125V36.1875C62.7772 37.475 63.7968 36.925 63.7968 36.6375V27.1375C63.8094 26.85 63.5702 26.625 63.2933 26.625Z" fill="black"/>
<path d="M43.6556 25.4375C43.6556 25.15 43.4291 24.95 43.1395 24.925H41.0247C40.7352 24.925 40.5086 25.15 40.5086 25.4375C40.5086 25.725 40.7352 25.95 41.0247 25.95H43.1395C43.4291 25.9375 43.6556 25.7125 43.6556 25.4375Z" fill="black"/>
<path d="M56.2313 38.2875C56.2313 38 56.0047 37.8 55.7152 37.775H53.6004C53.3108 37.775 53.0842 38 53.0842 38.2875C53.0842 38.575 53.3108 38.8 53.6004 38.8H55.7152C56.0047 38.8 56.2313 38.575 56.2313 38.2875Z" fill="black"/>
<path d="M48.5399 26.4C45.4809 26.4 43.001 28.8625 43.001 31.9C43.001 34.9375 45.4809 37.4 48.5399 37.4C51.5988 37.4 54.0787 34.9375 54.0787 31.9C54.0913 28.8625 51.5988 26.4 48.5399 26.4ZM48.5399 36.4125C46.0222 36.4125 43.9955 34.4 43.9955 31.9C43.9955 29.4 46.0222 27.3875 48.5399 27.3875C51.0575 27.3875 53.0842 29.4 53.0842 31.9C53.0842 34.4 51.0575 36.4125 48.5399 36.4125Z" fill="#A07052"/>
<path d="M60.0581 30.5375C59.3154 30.5375 58.686 31.1375 58.686 31.9C58.686 32.6375 59.2902 33.2625 60.0581 33.2625C60.8008 33.2625 61.4051 32.6625 61.4302 31.925C61.4051 31.1625 60.8008 30.5375 60.0581 30.5375ZM60.0581 32.2375C59.8567 32.2375 59.6805 32.0625 59.6805 31.8625C59.6805 31.6625 59.8567 31.4875 60.0581 31.4875C60.2595 31.4875 60.4358 31.6625 60.4358 31.8625C60.398 32.1 60.2344 32.2375 60.0581 32.2375Z" fill="black"/>
<path d="M37.0594 30.5375C36.3167 30.5375 35.6873 31.1375 35.7125 31.9C35.7125 32.6375 36.3167 33.2625 37.0846 33.2625C37.8273 33.2625 38.4315 32.6625 38.4315 31.925C38.4064 31.1625 37.8021 30.5375 37.0594 30.5375ZM37.0594 32.2375C36.858 32.2375 36.7195 32.0625 36.7195 31.8625C36.7195 31.6625 36.8958 31.525 37.0972 31.525C37.2986 31.525 37.4371 31.7 37.4371 31.9C37.3993 32.1 37.2231 32.2375 37.0594 32.2375Z" fill="black"/>
<path d="M48.8294 31.3V30.025C49.2071 30.1125 49.5092 30.275 49.7987 30.5375L50.2519 29.9125C49.8491 29.5375 49.3329 29.35 48.8294 29.2875V28.8625H48.2V29.2875C47.344 29.4 46.8027 29.9625 46.8027 30.675C46.8027 31.475 47.3692 31.7875 48.2 32.0125V33.35C47.7972 33.2375 47.3944 33.0125 47.1174 32.725L46.6265 33.325C47.0545 33.725 47.6209 33.975 48.2252 34.0625V34.5125H48.8294V34.0875C49.8239 34.025 50.4029 33.4375 50.4029 32.675C50.4029 31.8125 49.7735 31.5 48.8294 31.3ZM48.2 31.1375C47.8224 31 47.6587 30.85 47.6587 30.6C47.6839 30.2875 47.9105 30.0625 48.2 30V31.1375ZM48.8294 33.35V32.125C49.3204 32.2625 49.5469 32.4125 49.5469 32.725C49.5469 33.0375 49.2826 33.2875 48.8294 33.35Z" fill="#A07052"/>
<path d="M51.9639 41.2375H63.0919L63.4318 42.2875H51.5736" fill="black"/>
<path d="M33.7991 37.1376C35.4229 37.1376 36.7195 38.4376 36.7447 40.0626C36.7447 40.3501 36.9713 40.5751 37.2608 40.5751H59.8315C60.1211 40.5751 60.3225 40.3501 60.3476 40.0626C60.3476 38.4501 61.6568 37.1626 63.2933 37.1376C63.5828 37.1376 63.7842 36.9126 63.8094 36.6501V27.1501C63.8094 26.8626 63.5828 26.6626 63.2933 26.6376C61.6694 26.6376 60.3728 25.3376 60.3476 23.7125C60.3476 23.425 60.1211 23.2251 59.8315 23.2001H44.8641C44.8515 23.2001 44.8264 23.2001 44.8138 23.2001H44.7256C44.7256 23.2001 44.2851 23.1875 44.134 23.175C44.0711 23.1625 43.8193 24.2126 43.8319 24.2001H59.3784C59.6049 25.9626 61.0022 27.3501 62.7772 27.5751V36.1501C61.0022 36.3751 59.6049 37.7626 59.3784 39.5251H37.7392C37.5126 37.7626 36.1153 36.3751 34.3404 36.1501V27.5751C34.3026 26.2876 33.2829 26.8376 33.2829 27.1251V36.6251C33.2829 36.9126 33.5095 37.1376 33.7991 37.1376Z" fill="black"/>
<path d="M60.1085 19.925L62.7268 17.45C62.8024 17.375 62.8401 17.2875 62.8527 17.175C62.8527 17.075 62.8149 16.975 62.752 16.9L62.5254 16.6625C62.4499 16.5875 62.3618 16.55 62.2485 16.5375C62.1478 16.5375 62.0471 16.575 61.9715 16.6375L60.4358 18.0875L60.5491 13.375C60.5491 13.1625 60.3854 12.9875 60.1714 12.9875L59.8441 12.975C59.6301 12.975 59.4413 13.1375 59.4413 13.35L59.328 18.075L57.8552 16.5375C57.7796 16.4625 57.6915 16.425 57.5908 16.4125C57.4901 16.4125 57.3894 16.45 57.3139 16.5125L57.0747 16.7375C56.9992 16.8125 56.9614 16.9 56.9614 17.0125C56.9614 17.1125 56.9992 17.2125 57.0621 17.2875L59.5672 19.8875C59.6427 19.9625 59.7308 20 59.8441 20.0125C59.9322 20.0375 60.0329 20 60.1085 19.925Z" fill="#A07052"/>
<path d="M55.1739 17.6625L56.7348 16.1875C56.7852 16.15 56.8104 16.0875 56.8104 16.025C56.8104 15.9625 56.7852 15.9 56.7474 15.8625L56.6089 15.725C56.5712 15.675 56.5082 15.65 56.4453 15.65C56.3824 15.65 56.3194 15.675 56.2816 15.7125L55.3753 16.575L55.4382 13.775C55.4382 13.65 55.3501 13.55 55.2117 13.55H55.0102C54.8844 13.55 54.7711 13.65 54.7711 13.775L54.7081 16.575L53.8395 15.6625C53.8018 15.6125 53.7388 15.5875 53.6759 15.5875C53.6129 15.5875 53.5626 15.6125 53.5122 15.65L53.3738 15.7875C53.3234 15.825 53.2982 15.8875 53.2982 15.95C53.2982 16.0125 53.3234 16.075 53.3612 16.1125L54.8466 17.6625C54.8844 17.7125 54.9473 17.7375 55.0102 17.7375C55.0732 17.725 55.1235 17.7125 55.1739 17.6625Z" fill="#A07052"/>
<path d="M64.4514 17.6625L66.0124 16.1875C66.0627 16.15 66.0879 16.0875 66.0879 16.025C66.0879 15.9625 66.0627 15.9 66.0249 15.8625L65.8865 15.725C65.8487 15.675 65.7858 15.65 65.7228 15.65C65.6599 15.65 65.5969 15.675 65.5592 15.7125L64.6528 16.575L64.7158 13.775C64.7158 13.65 64.6277 13.55 64.4892 13.55H64.2878C64.1619 13.55 64.0486 13.65 64.0486 13.775L63.9857 16.575L63.1171 15.6625C63.0793 15.6125 63.0164 15.5875 62.9534 15.5875C62.8905 15.5875 62.8401 15.6125 62.7898 15.65L62.6513 15.7875C62.6009 15.825 62.5758 15.8875 62.5758 15.95C62.5758 16.0125 62.6009 16.075 62.6387 16.1125L64.1241 17.6625C64.1619 17.7125 64.2248 17.7375 64.2878 17.7375C64.3507 17.725 64.4136 17.7125 64.4514 17.6625Z" fill="#A07052"/>
</symbol><symbol id="phone" viewBox="0 0 23 23">
<g>
<path d="M22.4843 18.1768L18.9323 14.6244C18.2249 13.9197 17.0532 13.9411 16.3211 14.6735L14.5316 16.4626C14.4185 16.4003 14.3015 16.3352 14.1785 16.2662C13.0484 15.64 11.5018 14.7818 9.87421 13.1531C8.24183 11.5209 7.38283 9.97186 6.75476 8.84108C6.68849 8.72128 6.62499 8.60578 6.56228 8.49609L7.7633 7.29686L8.35377 6.70566C9.08703 5.9722 9.10725 4.80092 8.40141 4.09422L4.84942 0.541439C4.14358 -0.164267 2.97144 -0.142858 2.23818 0.5906L1.23711 1.59742L1.26446 1.62458C0.92879 2.05289 0.648292 2.54689 0.439554 3.0796C0.247137 3.58668 0.127339 4.07056 0.0725606 4.55544C-0.396456 8.44369 1.38036 11.9973 6.20242 16.8194C12.868 23.4845 18.2395 22.981 18.4713 22.9564C18.976 22.8961 19.4596 22.7755 19.9512 22.5846C20.4793 22.3783 20.9729 22.0982 21.401 21.7632L21.4229 21.7827L22.437 20.7896C23.1688 20.0563 23.1898 18.8846 22.4843 18.1768Z" fill="white"/>
</g>
</symbol><symbol id="quality" viewBox="0 0 60 60">
	<g>
		<path d="M37.659 7.47609C31.0592 4.14116 23.1091 5.41628 17.8765 10.6489C11.7951 16.7303 11.1864 26.4271 16.4608 33.2045C16.6472 33.4441 16.9259 33.5695 17.2076 33.5695C17.4106 33.5695 17.6151 33.5044 17.7877 33.37C18.1999 33.0493 18.2739 32.4552 17.9533 32.0431C13.2636 26.0171 13.8056 17.3944 19.2139 11.9861C23.8674 7.3323 30.9371 6.19815 36.8064 9.16382C37.2723 9.3996 37.8411 9.21234 38.0767 8.74628C38.3121 8.28023 38.1253 7.71152 37.659 7.47609Z" fill="black"/>
		<path d="M45.2095 15.0281C44.974 14.562 44.4055 14.375 43.9391 14.6103C43.473 14.8457 43.2859 15.4143 43.5213 15.8806C46.4849 21.7489 45.3501 28.8176 40.6977 33.47C35.2892 38.8782 26.6667 39.4201 20.6406 34.7306C20.2284 34.41 19.6345 34.484 19.3137 34.896C18.993 35.3082 19.0672 35.9022 19.4793 36.223C22.5665 38.6255 26.2592 39.8073 29.9402 39.8073C34.3402 39.8073 38.7236 38.1185 42.035 34.8071C47.2664 29.5758 48.5421 21.6272 45.2095 15.0281Z" fill="black"/>
		<path d="M42.7665 11.4268C42.5322 11.1617 42.2861 10.8999 42.035 10.6489C41.7838 10.3977 41.5222 10.1516 41.2571 9.91738C40.8658 9.57144 40.2681 9.60847 39.9226 9.99976C39.5765 10.3909 39.6133 10.9885 40.0046 11.3343C40.2407 11.5429 40.4739 11.7623 40.6977 11.986C40.9213 12.2098 41.1407 12.4429 41.3494 12.679C41.5362 12.8904 41.7966 12.9984 42.0583 12.9984C42.2808 12.9984 42.5042 12.9202 42.6841 12.7613C43.0755 12.4156 43.1123 11.818 42.7665 11.4268Z" fill="#B7875F"/>
		<path d="M52.2735 24.4231C52.9039 23.3887 52.9039 22.1038 52.2732 21.0697L51.0293 19.0298C50.8654 18.7609 50.802 18.4417 50.851 18.1309L51.2218 15.7751C51.4108 14.5745 50.9176 13.3847 49.9348 12.6698L48.007 11.2675C47.7521 11.082 47.5709 10.8114 47.4968 10.5051L46.9353 8.18487C46.6503 7.00632 45.7411 6.09718 44.5626 5.81194L42.2423 5.25038C41.936 5.1762 41.6651 4.99502 41.4799 4.74014L40.0774 2.81182C39.3625 1.82908 38.1726 1.3356 36.9724 1.52474L34.6157 1.89553C34.3049 1.94439 33.9856 1.88111 33.717 1.71728L31.6768 0.472984C30.6425 -0.15772 29.3576 -0.157603 28.3233 0.472984L26.2833 1.71693C26.0147 1.88088 25.6956 1.94392 25.3845 1.89517L23.0286 1.52439C21.8283 1.33549 20.6383 1.82873 19.9234 2.81147L18.5212 4.73932C18.3357 4.9942 18.0649 5.17538 17.7585 5.24956L15.4383 5.811C14.26 6.096 13.3506 7.00526 13.0654 8.1837L12.5038 10.504C12.4296 10.8103 12.2486 11.0812 11.9936 11.2664L10.0652 12.6689C9.08251 13.3837 8.58938 14.5734 8.77817 15.774L9.14896 18.1307C9.19782 18.4416 9.13454 18.7608 8.97071 19.0294L7.72653 21.0698C7.09606 22.1041 7.09606 23.3889 7.72665 24.4231L8.9706 26.4631C9.13442 26.7319 9.19782 27.0512 9.14884 27.3619L8.77806 29.7179C8.58903 30.9184 9.08228 32.1083 10.065 32.8231L11.9929 34.2254C12.2477 34.4107 12.4289 34.6815 12.5031 34.9878L13.0645 37.308C13.3495 38.4866 14.2588 39.3957 15.4372 39.681L16.4062 39.9154L9.84903 54.5421C9.7097 54.853 9.74825 55.2147 9.95017 55.4891C10.152 55.7636 10.4856 55.9083 10.824 55.8677L16.1001 55.2369L19.1394 59.5952C19.3173 59.8501 19.6076 59.9999 19.9148 59.9999C19.9442 59.9999 19.9739 59.9985 20.0035 59.9958C20.3426 59.9639 20.6385 59.7519 20.7778 59.4413L27.4745 44.5023L28.3231 45.0197C28.8402 45.335 29.42 45.4926 29.9998 45.4926C30.5797 45.4926 31.1594 45.3349 31.6765 45.0197L32.5557 44.4837L39.2608 59.4413C39.4001 59.7522 39.6959 59.9639 40.0352 59.9958C40.0648 59.9986 40.0945 60 40.1239 60C40.431 60 40.7214 59.8502 40.8992 59.5954L43.9386 55.237L49.2146 55.8679C49.5528 55.9081 49.8867 55.7637 50.0885 55.4892C50.2903 55.2148 50.3291 54.8531 50.1896 54.5422L43.6291 39.9075L44.5616 39.6819C45.7399 39.3969 46.6493 38.4876 46.9345 37.3092L47.4961 34.9889C47.5702 34.6825 47.7514 34.4117 48.0063 34.2264L49.9346 32.8239C50.9174 32.1092 51.4105 30.9195 51.2217 29.7189L50.8509 27.3622C50.802 27.0513 50.8653 26.7321 51.0292 26.4635L52.2735 24.4231ZM19.7353 57.1439L17.3267 53.6899C17.127 53.4035 16.7855 53.2502 16.4389 53.292L12.2577 53.7919L18.2318 40.4649C18.341 40.5452 18.439 40.6414 18.5198 40.7526L19.9223 42.681C20.0555 42.8641 20.2053 43.0302 20.3685 43.1781L17.224 50.1926C17.0105 50.6692 17.2235 51.2285 17.7 51.4421C17.8257 51.4985 17.957 51.5251 18.0862 51.5251C18.4473 51.5251 18.7923 51.317 18.9495 50.9661L22.0828 43.9766C22.3912 44.0189 22.7086 44.0182 23.0273 43.968L25.3839 43.5972C25.525 43.5751 25.6676 43.5771 25.8065 43.6001L19.7353 57.1439ZM47.7812 53.7916L43.5999 53.292C43.2529 53.2504 42.9118 53.4035 42.7121 53.6899L40.3034 57.1439L34.2297 43.5948C34.3571 43.5774 34.487 43.5774 34.6156 43.5976L36.9714 43.9684C37.303 44.0205 37.6333 44.0189 37.9533 43.9712L41.0891 50.9664C41.2464 51.3173 41.5912 51.5254 41.9524 51.5254C42.0816 51.5254 42.213 51.4987 42.3385 51.4424C42.815 51.2289 43.0282 50.6693 42.8145 50.1928L39.6581 43.1516C39.8103 43.0103 39.951 42.8538 40.0765 42.6813L41.4788 40.7535C41.5672 40.6319 41.6755 40.5278 41.7971 40.4435L47.7812 53.7916ZM50.6587 23.4385L49.4145 25.4789C49.0179 26.1297 48.8643 26.9029 48.9828 27.656L49.3536 30.0126C49.4315 30.5082 49.2279 30.9993 48.8223 31.2944L46.8938 32.697C46.2766 33.1461 45.8376 33.802 45.6581 34.5439L45.0965 36.8642C44.9787 37.3507 44.6035 37.726 44.117 37.8438L41.7966 38.4052C41.0546 38.5848 40.3986 39.0238 39.9495 39.6411L38.5473 41.569C38.2522 41.9748 37.7612 42.1782 37.2653 42.1002L34.9094 41.7294C34.1562 41.6109 33.3829 41.7642 32.7319 42.1611L30.692 43.4051C30.2651 43.6652 29.7345 43.6652 29.3078 43.4051L27.2675 42.161C26.76 41.8515 26.1783 41.6903 25.5897 41.6903C25.4233 41.6903 25.2561 41.7031 25.0902 41.7293L22.7335 42.1001C22.2378 42.1781 21.7468 41.9743 21.4517 41.5687L20.0491 39.6404C19.6 39.0232 18.9441 38.5842 18.2022 38.4047L15.8819 37.8431C15.3954 37.7253 15.0201 37.3501 14.9023 36.8635L14.3408 34.5433C14.1613 33.8013 13.7224 33.1452 13.105 32.6961L11.1772 31.2937C10.7715 30.9986 10.568 30.5074 10.646 30.0118L11.0168 27.6558C11.1353 26.9027 10.982 26.1295 10.5851 25.4785L9.34114 23.4384C9.08087 23.0115 9.08087 22.481 9.34114 22.0542L10.5853 20.0138C10.9821 19.3629 11.1355 18.5897 11.017 17.8367L10.6463 15.48C10.5683 14.9845 10.772 14.4933 11.1776 14.1982L13.106 12.7956C13.7233 12.3466 14.1622 11.6907 14.3418 10.9487L14.9033 8.62843C15.0211 8.14198 15.3963 7.76663 15.8829 7.64886L18.2032 7.08741C18.9453 6.90788 19.6013 6.46889 20.0502 5.85155L21.4525 3.92369C21.7476 3.51799 22.2386 3.3142 22.7344 3.39237L25.0904 3.76315C25.8436 3.88186 26.617 3.72834 27.2678 3.33143L29.3077 2.08748C29.7346 1.82732 30.2652 1.82732 30.6919 2.08748L32.7323 3.33154C33.3831 3.72858 34.1566 3.88198 34.9095 3.76338L37.2663 3.3926C37.7617 3.3149 38.253 3.51834 38.5481 3.92393L39.9507 5.85225C40.3998 6.46948 41.0557 6.90847 41.7976 7.088L44.1179 7.64956C44.6043 7.76733 44.9797 8.14257 45.0975 8.62913L45.6589 10.9493C45.8384 11.6914 46.2773 12.3475 46.8948 12.7966L48.8226 14.1988C49.2283 14.4939 49.4319 14.9852 49.3538 15.4807L48.9831 17.8367C48.8646 18.5899 49.0179 19.3631 49.4148 20.014L50.6587 22.0542C50.9191 22.4811 50.9191 23.0116 50.6587 23.4385Z" fill="black"/>
		<path d="M41.0645 19.8044C40.8561 19.1629 40.3106 18.715 39.6408 18.6356L33.9512 17.9609L31.5514 12.7584C31.2689 12.146 30.6744 11.7654 29.9999 11.7654C29.3254 11.7654 28.7308 12.146 28.4483 12.7584L26.0485 17.961L20.3589 18.6357C19.6891 18.7151 19.1435 19.163 18.9352 19.8045C18.7269 20.4456 18.905 21.1287 19.4 21.5866L23.6064 25.4766L22.4899 31.0962C22.3585 31.7579 22.6158 32.4151 23.1616 32.8114C23.4626 33.0301 23.812 33.1408 24.1635 33.1408C24.4494 33.1408 24.7365 33.0677 25.0003 32.92L29.9997 30.1217L34.9992 32.92C35.5878 33.2496 36.2923 33.208 36.838 32.8115C37.3837 32.4151 37.6411 31.7578 37.5096 31.0962L36.393 25.4767L40.5995 21.5867C41.0947 21.1289 41.2729 20.4459 41.0645 19.8044ZM34.7206 24.4477C34.4792 24.671 34.3712 25.0037 34.4352 25.3262L35.5778 31.0767L30.4616 28.213C30.3181 28.1327 30.159 28.0925 29.9997 28.0925C29.8405 28.0925 29.6815 28.1326 29.5379 28.213L24.4217 31.0767L25.5643 25.3262C25.6285 25.0035 25.5203 24.671 25.2788 24.4477L20.9743 20.4669L26.7969 19.7765C27.1234 19.7378 27.4064 19.5322 27.5442 19.2337L29.9999 13.9097L32.4555 19.2337C32.5933 19.5322 32.8762 19.7378 33.2028 19.7765L39.0252 20.4669L34.7206 24.4477Z" fill="#A07052"/>
	</g>
</symbol><symbol id="secure" viewBox="0 0 60 60">
<path d="M44.7499 43.0796C44.3066 42.7722 43.6981 42.8828 43.391 43.3261C43.0934 43.7557 42.756 44.1735 42.388 44.568C42.1414 44.8325 41.8021 45.1515 41.433 45.4655C41.0223 45.8151 40.9727 46.4314 41.3222 46.8422C41.5154 47.0692 41.79 47.1858 42.0664 47.1858C42.2901 47.1858 42.515 47.1093 42.699 46.9529C43.1296 46.5863 43.5162 46.2222 43.8164 45.8999C44.2482 45.4371 44.6453 44.9455 44.9965 44.4385C45.3036 43.9952 45.1933 43.3868 44.7499 43.0796Z" fill="black"/>
<path d="M40.4955 47.4585C40.2664 46.9703 39.6851 46.7601 39.1966 46.9891L39.1661 47.0029C38.6726 47.2205 38.4492 47.7971 38.6671 48.2905C38.8282 48.6558 39.1858 48.873 39.5609 48.873C39.6926 48.873 39.8266 48.8462 39.9546 48.7897C39.9785 48.7792 40.0021 48.7685 40.0258 48.7575C40.5141 48.5284 40.7244 47.947 40.4955 47.4585Z" fill="black"/>
<path d="M52.0825 8H7.91747C6.30869 8 5 9.30888 5 10.9175V38.2858C5 39.8942 6.30869 41.2031 7.91747 41.2031H28.4825C29.3543 44.8916 31.3257 47.5038 33.0486 49.1775C35.5634 51.6207 38.4462 52.9217 39.5604 52.9217C40.6744 52.9217 43.5572 51.6207 46.0722 49.1776C47.7952 47.5038 49.7666 44.8916 50.6382 41.2032H52.0825C53.6912 41.2032 55 39.8944 55 38.2859V10.9175C55 9.30888 53.6912 8 52.0825 8ZM49.1406 37.2009C49.1407 42.3462 46.7656 45.7592 44.773 47.7163C42.4094 50.0379 39.9849 50.9409 39.5604 50.9684C39.1357 50.9409 36.7112 50.038 34.3476 47.7163C32.3552 45.7592 29.9802 42.3462 29.9802 37.2009V32.3917C33.3424 31.4194 36.4885 30.0887 39.5607 28.3398C42.5636 30.0442 45.8507 31.4342 49.1406 32.3912V37.2009ZM53.0469 38.2858C53.0469 38.8174 52.6142 39.2499 52.0825 39.2499H50.9779C51.0527 38.5956 51.0937 37.9132 51.0937 37.2009V31.6513C51.0937 31.2105 50.7984 30.8245 50.3732 30.7089C46.827 29.746 43.2585 28.2454 40.0537 26.3695C39.7489 26.1912 39.3718 26.1914 39.0669 26.3697C35.7712 28.2988 32.3958 29.718 28.7476 30.7089C28.3223 30.8246 28.027 31.2106 28.027 31.6513V37.2009C28.027 37.9132 28.0679 38.5956 28.1428 39.2499H7.91747C7.38574 39.2499 6.95312 38.8173 6.95312 38.2858V21.6716H53.0469V38.2858ZM53.0469 19.7187H6.95312V15.8126H53.0469V19.7187ZM53.0469 13.8594H6.95312V10.9175C6.95312 10.3857 7.38574 9.95312 7.91747 9.95312H52.0825C52.6142 9.95312 53.0469 10.3857 53.0469 10.9175V13.8594Z" fill="black"/>
<path d="M16.7184 28.5079C16.1297 28.5079 15.5484 28.627 15.0103 28.8539C14.4846 28.6312 13.9069 28.5079 13.301 28.5079C10.8779 28.5079 8.90637 30.4793 8.90637 32.9023C8.90637 35.3254 10.8778 37.2969 13.301 37.2969C13.9069 37.2969 14.4846 37.1736 15.0102 36.9509C15.5484 37.1778 16.1297 37.2969 16.7184 37.2969C19.1417 37.2969 21.1132 35.3254 21.1132 32.9023C21.1132 30.4793 19.1417 28.5079 16.7184 28.5079ZM13.301 35.3437C11.9547 35.3437 10.8595 34.2486 10.8595 32.9023C10.8595 31.5561 11.9547 30.4611 13.301 30.4611C14.6471 30.4611 15.7423 31.5561 15.7423 32.9023C15.7423 34.2485 14.6471 35.3437 13.301 35.3437ZM16.9605 35.3318C17.4244 34.6354 17.6954 33.7999 17.6954 32.9024C17.6954 32.0049 17.4244 31.1696 16.9607 30.4732C18.1935 30.5951 19.1599 31.638 19.1599 32.9024C19.1599 34.1668 18.1935 35.2099 16.9605 35.3318Z" fill="black"/>
<path d="M14.9058 24.1131H9.88269C9.34333 24.1131 8.90613 24.5503 8.90613 25.0897C8.90613 25.6289 9.34333 26.0663 9.88269 26.0663H14.9058C15.4452 26.0663 15.8824 25.6288 15.8824 25.0897C15.8824 24.5503 15.4452 24.1131 14.9058 24.1131Z" fill="#A07052"/>
<path d="M17.7926 24.1131H17.7463C17.2069 24.1131 16.7698 24.5503 16.7698 25.0897C16.7698 25.6289 17.2069 26.0663 17.7463 26.0663H17.7926C18.3319 26.0663 18.7691 25.6288 18.7691 25.0897C18.7691 24.5503 18.3319 24.1131 17.7926 24.1131Z" fill="#A07052"/>
<path d="M44.9208 34.9554C44.5397 34.5743 43.9214 34.5741 43.5398 34.9554L38.3175 40.1773L35.5808 37.4404C35.1994 37.0594 34.5811 37.0592 34.1998 37.4404C33.8184 37.8219 33.8183 38.4403 34.1998 38.8216L37.627 42.2489C37.8177 42.4397 38.0676 42.5351 38.3175 42.5351C38.5674 42.5351 38.8174 42.4397 39.0079 42.2489L44.9207 36.3366C45.3022 35.9554 45.3022 35.3369 44.9208 34.9554Z" fill="#A07052"/>
</symbol><symbol id="services" viewBox="0 0 59 60">
	<g>
		<path d="M43.6901 0.9375L43.6901 59.0625C43.6901 59.5809 43.2788 60 42.7699 60C42.2611 60 41.8498 59.5809 41.8498 59.0625L41.8498 0.9375C41.8498 0.419064 42.2611 -1.79786e-08 42.7699 -4.02206e-08C43.2788 -6.24625e-08 43.6901 0.419063 43.6901 0.9375Z" fill="#A07052"/>
		<path d="M40.0426 13.1288L40.0426 57.1885C40.0426 57.7069 39.6313 58.126 39.1225 58.126L29.0065 58.126C28.4977 58.126 28.0864 57.7069 28.0864 57.1885L28.0864 13.1288C28.0864 12.6104 28.4977 12.1913 29.0065 12.1913L39.1216 12.1913C39.6304 12.1913 40.0426 12.6104 40.0426 13.1288ZM38.2024 56.251L38.2024 14.0663L29.9285 14.0663L29.9285 56.251L38.2024 56.251Z" fill="black"/>
		<path d="M29.9266 13.1287L29.9266 57.1884C29.9266 57.5672 29.703 57.9103 29.3589 58.0547C29.0148 58.2 28.6191 58.1194 28.3559 57.8512L18.228 47.535C18.055 47.3587 17.9584 47.1215 17.9584 46.8722L17.9584 2.81248C17.9584 2.43373 18.182 2.09061 18.5261 1.94623C18.8702 1.80092 19.2659 1.88155 19.529 2.14967L29.657 12.4659C29.83 12.6412 29.9266 12.8794 29.9266 13.1287ZM28.0863 54.9253L28.0863 13.5169L19.7977 5.07561L19.7977 46.484L28.0863 54.9253Z" fill="black"/>
		<path d="M40.0426 13.1287C40.0426 13.3687 39.9524 13.6087 39.773 13.7915C39.4132 14.1581 38.8317 14.1581 38.4719 13.7915L28.3467 3.47436C27.987 3.10686 27.987 2.51623 28.3467 2.14873C28.7065 1.78123 29.288 1.78123 29.6478 2.14873L39.773 12.4659C39.9524 12.6487 40.0426 12.8887 40.0426 13.1287Z" fill="black"/>
		<path d="M29.9174 2.81158C29.9174 3.33002 29.5061 3.74908 28.9973 3.74908L18.8794 3.74908C18.3706 3.74908 17.9593 3.33002 17.9593 2.81158C17.9593 2.29221 18.3706 1.87408 18.8794 1.87408L28.9973 1.87408C29.5043 1.87408 29.9174 2.29221 29.9174 2.81158Z" fill="black"/>
		<path d="M29.9266 46.8722C29.9266 47.3906 29.5153 47.8097 29.0065 47.8097L18.8794 47.8097C18.3706 47.8097 17.9593 47.3906 17.9593 46.8722C17.9593 46.3538 18.3706 45.9347 18.8794 45.9347L29.0083 45.9347C29.5162 45.9347 29.9266 46.3538 29.9266 46.8722Z" fill="black"/>
		<path d="M57.5069 13.1287L57.5069 57.1884C57.5069 57.5672 57.2824 57.9103 56.9392 58.0547C56.5941 58.2 56.1985 58.1194 55.9362 57.8512L45.8073 47.535C45.6334 47.3587 45.5377 47.1215 45.5377 46.8722L45.5377 2.81248C45.5377 2.43373 45.7604 2.09061 46.1054 1.94623C46.4487 1.80092 46.8443 1.88155 47.1084 2.14967L57.2373 12.4659C57.4103 12.6412 57.5069 12.8794 57.5069 13.1287ZM55.6666 54.9253L55.6666 13.5169L47.378 5.07561L47.378 46.484L55.6666 54.9253Z" fill="black"/>
		<path d="M57.5032 46.8722C57.5032 47.3906 57.0919 47.8097 56.5831 47.8097L46.4579 47.8097C45.949 47.8097 45.5377 47.3906 45.5377 46.8722C45.5377 46.3538 45.949 45.9347 46.4579 45.9347L56.5831 45.9347C57.0919 45.9347 57.5032 46.3538 57.5032 46.8722Z" fill="black"/>
		<path d="M29.9303 30C29.9303 30.5184 29.519 30.9375 29.0102 30.9375L2.30222 30.9375C1.79338 30.9375 1.38208 30.5184 1.38208 30C1.38208 29.4816 1.79338 29.0625 2.30222 29.0625L29.0102 29.0625C29.5199 29.0625 29.9303 29.4816 29.9303 30Z" fill="black"/>
		<path fill-rule="evenodd" clip-rule="evenodd" d="M12.0409 24.3741L11.7714 24.6487C11.4116 25.0162 11.4116 25.6069 11.7714 25.9744C12.1311 26.3419 12.7127 26.3419 13.0724 25.9744L14.891 24.1215C15.0704 23.9505 15.1823 23.7071 15.1823 23.4366C15.1823 23.1636 15.0687 22.9186 14.887 22.7476L13.0724 20.8987C12.7127 20.5312 12.1311 20.5312 11.7714 20.8987C11.4116 21.2662 11.4116 21.8569 11.7714 22.2244L12.041 22.4991L5.98093 22.4991C5.47209 22.4991 5.06079 22.9172 5.06079 23.4366C5.06079 23.955 5.47209 24.3741 5.98093 24.3741L12.0409 24.3741Z" fill="#A07052"/>
		<path fill-rule="evenodd" clip-rule="evenodd" d="M12.0409 37.5121L11.7714 37.7868C11.4116 38.1533 11.4116 38.7458 11.7714 39.1124C12.1311 39.479 12.7127 39.479 13.0724 39.1124L14.8906 37.2599C15.0702 37.0889 15.1823 36.8453 15.1823 36.5746C15.1823 36.3047 15.0708 36.0618 14.8922 35.8909L13.0724 34.0368C12.7127 33.6702 12.1311 33.6702 11.7714 34.0368C11.4116 34.4033 11.4116 34.9958 11.7714 35.3624L12.041 35.6371L5.98093 35.6371C5.47209 35.6371 5.06079 36.0562 5.06079 36.5746C5.06079 37.0931 5.47209 37.5121 5.98093 37.5121L12.0409 37.5121Z" fill="#A07052"/>
	</g>
</symbol><symbol id="special" viewBox="0 0 60 60">
	<g>
		<path d="M52.035 47.6802C51.8172 47.4622 51.5148 47.3369 51.2067 47.3369C50.8987 47.3369 50.5963 47.4622 50.3785 47.6802C50.1606 47.898 50.0352 48.2004 50.0352 48.5084C50.0352 48.8165 50.1606 49.1189 50.3785 49.3366C50.5963 49.5545 50.8987 49.68 51.2067 49.68C51.5148 49.68 51.8172 49.5546 52.035 49.3366C52.2542 49.1188 52.3783 48.8165 52.3783 48.5084C52.3783 48.2004 52.2542 47.898 52.035 47.6802Z" fill="black"/>
		<path d="M22.677 51.0858C20.2223 51.0858 18.2251 53.0829 18.2251 55.5378C18.2251 57.9925 20.2222 59.9897 22.677 59.9897C25.1318 59.9897 27.129 57.9926 27.129 55.5378C27.129 53.0829 25.1318 51.0858 22.677 51.0858ZM22.677 57.6465C21.5143 57.6465 20.5682 56.7005 20.5682 55.5378C20.5682 54.375 21.5143 53.429 22.677 53.429C23.8398 53.429 24.7858 54.375 24.7858 55.5378C24.7858 56.7005 23.8398 57.6465 22.677 57.6465Z" fill="black"/>
		<path d="M44.1659 51.0858C41.7112 51.0858 39.7139 53.0829 39.7139 55.5378C39.7139 57.9925 41.711 59.9897 44.1659 59.9897C46.6206 59.9897 48.6178 57.9926 48.6178 55.5378C48.6178 53.0829 46.6207 51.0858 44.1659 51.0858ZM44.1659 57.6465C43.0032 57.6465 42.0571 56.7005 42.0571 55.5378C42.0571 54.375 43.0032 53.429 44.1659 53.429C45.3286 53.429 46.2747 54.375 46.2747 55.5378C46.2747 56.7005 45.3289 57.6465 44.1659 57.6465Z" fill="black"/>
		<path d="M54.776 30.995C54.1411 30.8725 53.5263 31.2883 53.404 31.9238L51.7013 40.7634C51.5952 41.3138 51.1113 41.7133 50.5508 41.7133H16.7428L12.1544 21.7578H24.202C24.8491 21.7578 25.3735 21.2333 25.3735 20.5863C25.3735 19.9393 24.849 19.4148 24.202 19.4148H11.6156L10.366 13.9801C9.99701 12.3744 8.58842 11.2529 6.94077 11.2529H1.17152C0.52453 11.2528 0 11.7773 0 12.4245C0 13.0716 0.52453 13.596 1.17152 13.596H6.94088C7.49014 13.596 7.95959 13.9697 8.08264 14.505L15.9614 48.7709C16.0837 49.3029 16.5573 49.6799 17.1031 49.6799H46.9856C47.6328 49.6799 48.1572 49.1553 48.1572 48.5084C48.1572 47.8614 47.6326 47.3369 46.9856 47.3369H18.0358L17.2816 44.0566H50.5508C52.2325 44.0566 53.6841 42.8581 54.002 41.2068L55.7047 32.3673C55.8272 31.7316 55.4114 31.1175 54.776 30.995Z" fill="black"/>
		<path d="M59.5468 15.8332C60.291 14.6241 60.1043 13.0835 59.0927 12.0873L57.9227 10.9348C57.7794 10.7936 57.7055 10.5976 57.7196 10.3969L57.8368 8.75064C57.9382 7.32776 57.0552 6.04655 55.6894 5.63487L54.14 5.16776C53.9462 5.10928 53.7889 4.96924 53.7083 4.78362L53.0598 3.28749C52.4978 1.99093 51.0833 1.24761 49.6968 1.51948L48.1247 1.82804C47.9248 1.86706 47.7197 1.81632 47.5614 1.68847L46.3099 0.67808C45.2073 -0.212075 43.6065 -0.212309 42.5038 0.67808L41.2524 1.68847C41.0939 1.81632 40.8889 1.8673 40.6889 1.82792L39.1167 1.51937C37.7301 1.24714 36.3157 1.99069 35.7538 3.28702L35.1051 4.7835C35.0246 4.96924 34.8673 5.10917 34.6735 5.16764L33.1244 5.63463C31.7587 6.04643 30.8757 7.32764 30.977 8.75041L31.0942 10.3968C31.1085 10.5974 31.0345 10.7933 30.8913 10.9345L29.7213 12.0871C28.7097 13.0834 28.523 14.6238 29.2672 15.833L30.1322 17.2389C30.2375 17.41 30.2626 17.6176 30.2011 17.8089L29.6949 19.383C29.2595 20.7369 29.8096 22.1896 31.0324 22.9154L32.4347 23.748C32.6082 23.8509 32.727 24.024 32.7609 24.2229L33.0367 25.8417C33.2772 27.2525 34.4436 28.2873 35.8728 28.3583L37.4787 28.4381C37.6816 28.4482 37.8684 28.5467 37.9912 28.7082L38.9705 29.9968C39.5559 30.7667 40.4658 31.1897 41.3928 31.1897C41.8232 31.1897 42.2574 31.0985 42.6642 30.9085L44.1162 30.2306C44.3008 30.1444 44.5124 30.1444 44.6971 30.2306L46.1488 30.9085C47.4322 31.5077 48.9857 31.1243 49.8427 29.9965L50.8215 28.7083C50.9445 28.5466 51.1313 28.4482 51.3341 28.4381L52.9404 28.3582C54.3697 28.2872 55.536 27.2524 55.7764 25.8416L56.0523 24.2228C56.0862 24.0239 56.2051 23.8509 56.3784 23.7479L57.7808 22.9154C59.0035 22.1896 59.5536 20.7369 59.1184 19.383L58.6121 17.8089C58.5506 17.6176 58.5757 17.41 58.6809 17.239L59.5468 15.8332ZM57.5512 14.6052L56.686 16.0112C56.2217 16.7659 56.1109 17.6827 56.3822 18.5262L56.8884 20.1003C56.9871 20.4071 56.8624 20.7363 56.5855 20.9007L55.1832 21.7332C54.4178 22.1877 53.893 22.9515 53.7432 23.8291L53.4674 25.4478C53.4129 25.7674 53.1487 26.0019 52.8247 26.0181L51.2183 26.098C50.3232 26.1425 49.499 26.5772 48.9566 27.2907L47.9777 28.5788C47.7834 28.8342 47.4315 28.9212 47.1407 28.7855L45.689 28.1075C44.8743 27.727 43.9397 27.7271 43.1251 28.1075L41.6733 28.7855C41.3826 28.9214 41.0305 28.8343 40.8364 28.5788L39.857 27.2903C39.3148 26.5769 38.4905 26.1423 37.5954 26.0978L35.9895 26.018C35.6657 26.0019 35.4013 25.7674 35.3468 25.4477L35.071 23.8289C34.9213 22.9514 34.3966 22.1875 33.6311 21.7331L32.2287 20.9006C31.9517 20.7361 31.8271 20.407 31.9258 20.1002L32.432 18.5261C32.7032 17.6824 32.5926 16.7658 32.1282 16.011L31.263 14.605C31.0943 14.3311 31.1367 13.982 31.3659 13.7563L32.536 12.6036C33.1683 11.9807 33.4948 11.1156 33.4318 10.2303L33.3146 8.58389C33.2916 8.26162 33.4918 7.97123 33.801 7.87795L35.3501 7.41096C36.2053 7.15315 36.8997 6.5351 37.2551 5.71561L37.9039 4.21913C38.0137 3.96612 38.2667 3.80593 38.5357 3.80593C38.579 3.80593 38.6225 3.81014 38.6659 3.81858L40.238 4.12702C41.1194 4.30034 42.0256 4.07569 42.7245 3.51143L43.9759 2.50105C44.2259 2.29925 44.5886 2.29937 44.8383 2.50105L46.0897 3.51143C46.7885 4.07557 47.6945 4.29987 48.5762 4.12714L50.1482 3.8187C50.4626 3.75659 50.7829 3.92557 50.91 4.21925L51.5585 5.71538C51.9138 6.53522 52.6083 7.15326 53.4637 7.41108L55.0131 7.87818C55.3225 7.97147 55.5226 8.26174 55.4996 8.58412L55.3825 10.2304C55.3194 11.1157 55.6459 11.9808 56.2782 12.6039L57.4482 13.7564C57.6775 13.9821 57.7198 14.3311 57.5512 14.6052Z" fill="black"/>
		<path d="M47.1171 10.2924C46.5536 9.97419 45.8391 10.1731 45.5211 10.7366L40.0877 20.3612C39.7696 20.9248 39.9684 21.6393 40.5319 21.9573C40.714 22.0601 40.9116 22.1089 41.1068 22.1089C41.5157 22.1089 41.9127 21.8945 42.1281 21.513L47.5615 11.8884C47.8794 11.3249 47.6805 10.6104 47.1171 10.2924Z" fill="#A07052"/>
		<path d="M47.938 16.4468C46.2579 16.4468 44.891 17.8137 44.891 19.4938C44.891 21.1739 46.2579 22.5408 47.938 22.5408C49.6181 22.5408 50.985 21.1739 50.985 19.4938C50.985 17.8137 49.618 16.4468 47.938 16.4468ZM47.938 20.1977C47.5499 20.1977 47.2342 19.882 47.2342 19.4939C47.2342 19.1058 47.5499 18.7901 47.938 18.7901C48.3262 18.7901 48.6419 19.1058 48.6419 19.4939C48.6419 19.882 48.3262 20.1977 47.938 20.1977Z" fill="#A07052"/>
		<path d="M40.8762 8.65839C39.1961 8.65839 37.8292 10.0253 37.8292 11.7054C37.8292 13.3855 39.1961 14.7524 40.8762 14.7524C42.5563 14.7524 43.9232 13.3855 43.9232 11.7054C43.9232 10.0253 42.5563 8.65839 40.8762 8.65839ZM40.8761 12.4093C40.488 12.4093 40.1723 12.0936 40.1723 11.7055C40.1723 11.3174 40.488 11.0017 40.8761 11.0017C41.2642 11.0017 41.5799 11.3174 41.5799 11.7055C41.5799 12.0935 41.2642 12.4093 40.8761 12.4093Z" fill="#A07052"/>
	</g>
</symbol><symbol id="telegram" viewBox="0 0 17 17">
	<g>
		<path fill-rule="evenodd" clip-rule="evenodd" d="M16.7376 1.68882C16.5298 1.43487 16.2188 1.29492 15.8617 1.29492C15.6674 1.29492 15.4618 1.33591 15.2504 1.41658L0.860161 6.90973C0.0964924 7.20117 -0.00635909 7.63851 0.000255562 7.8734C0.00687021 8.10815 0.134365 8.53901 0.913338 8.78674L0.922677 8.78962L0.927346 8.79102L2.94547 9.36844L12.7741 4.34713C13.0189 4.22184 13.3191 4.31912 13.4442 4.56412C13.5425 4.75659 13.5031 4.98279 13.363 5.13168L13.3634 5.13207L7.89868 10.9386L7.74278 11.5703L9.69423 13.1418L12.3985 15.3193L12.4056 15.3249C12.7031 15.5557 13.0282 15.6777 13.3455 15.6778C13.9657 15.6778 14.4595 15.2188 14.6034 14.5085L16.9612 2.86623C17.0557 2.39905 16.9763 1.98077 16.7376 1.68882ZM6.96318 10.5732C6.98302 10.4927 7.02297 10.4159 7.0838 10.3512L10.6696 6.54102L4.01562 9.94044L5.5265 14.2614C5.61262 14.5076 5.74076 14.7172 5.89925 14.8812L6.96292 10.5731L6.96318 10.5732ZM7.84782 14.8418C7.53862 15.1265 7.18571 15.278 6.82657 15.281L7.47935 12.6372L8.95325 13.824L7.84782 14.8418Z"/>
	</g>
</symbol><symbol id="warranty" viewBox="0 0 60 60">
	<g>
		<path d="M57.5299 25.0677L56.7581 24.4905C55.7968 23.7709 55.4558 22.4974 55.9282 21.3937L56.3082 20.508C57.0799 18.7058 56.9605 16.6985 55.9804 15.0011C54.9999 13.3033 53.3217 12.1959 51.3749 11.9639L50.4182 11.8494C49.2257 11.7071 48.2932 10.7746 48.1509 9.5826L48.0369 8.62542C47.8043 6.67902 46.697 5.00042 44.9996 4.02035C43.3018 3.03983 41.2945 2.92036 39.4928 3.6926L38.6066 4.07208C37.5029 4.54495 36.2294 4.20346 35.5098 3.24216L34.9326 2.47084C33.758 0.901177 31.9604 0.0012207 29.9998 0.0012207C28.0392 0.0012207 26.2416 0.901177 25.0669 2.47084L24.4893 3.24216C23.7697 4.20392 22.4966 4.54495 21.3925 4.07208L20.5067 3.6926C18.7045 2.92081 16.6973 3.03983 14.9999 4.02035C13.3021 5.00042 12.1947 6.67902 11.9626 8.62542L11.8482 9.58214C11.7058 10.7746 10.7734 11.7071 9.58092 11.8494L8.6242 11.9639C6.6778 12.1959 4.9992 13.3033 4.01913 15.0011C3.03861 16.6985 2.91959 18.7058 3.69138 20.508L4.07086 21.3937C4.54373 22.4974 4.20224 23.7709 3.24094 24.4905L2.46962 25.0677C0.900414 26.2423 0 28.0404 0 30.0005C0 31.9611 0.900414 33.7592 2.46962 34.9338L3.2414 35.511C4.2027 36.2306 4.54373 37.5041 4.07132 38.6078L3.69138 39.4936C2.91959 41.2958 3.03907 43.303 4.01913 45.0004C4.99966 46.6982 6.6778 47.8056 8.62466 48.0377L9.58138 48.1521C10.7738 48.2945 11.7063 49.2269 11.8487 50.4189L11.9626 51.3761C12.1952 53.3225 13.3025 55.0011 14.9999 55.9812C16.6977 56.9612 18.705 57.0807 20.5067 56.3089L21.393 55.9294C22.4966 55.4566 23.7701 55.7981 24.4897 56.7594L25.0669 57.5307C26.2416 59.1003 28.0396 60.0008 30.0002 60.0008C31.9604 60.0008 33.7584 59.1003 34.933 57.5307L35.5103 56.7594C36.2299 55.7981 37.5029 55.4566 38.6075 55.9299L39.4933 56.3089C41.295 57.0807 43.3023 56.9617 45.0001 55.9816C46.6975 55.0011 47.8048 53.3225 48.0373 51.3761L48.1513 50.4194C48.2937 49.2269 49.2261 48.2945 50.4186 48.1521L51.3753 48.0381C53.3217 47.8056 55.0008 46.6982 55.9809 45.0009C56.9609 43.303 57.0804 41.2958 56.3082 39.4936L55.9291 38.6082C55.4563 37.5041 55.7973 36.2306 56.759 35.511L57.5304 34.9338C59.1 33.7592 60 31.9611 60 30.001C59.9995 28.0404 59.0991 26.2423 57.5299 25.0677ZM56.1255 33.0574L55.3542 33.6347C53.5236 35.0043 52.8736 37.4291 53.7745 39.5311L54.1535 40.4164C54.6318 41.5329 54.5577 42.7766 53.9507 43.8285C53.3432 44.8809 52.3032 45.5667 51.097 45.7109L50.1403 45.8248C47.8698 46.0958 46.0951 47.871 45.8241 50.1415L45.7096 51.0982C45.5654 52.3044 44.8797 53.3445 43.8278 53.9519C42.7758 54.5589 41.5321 54.6331 40.4156 54.1547L39.5299 53.7752C37.4278 52.8748 35.0035 53.5248 33.6335 55.3554L33.0562 56.1267C32.3284 57.099 31.2142 57.657 29.9998 57.657C28.7849 57.657 27.6707 57.099 26.9428 56.1267L26.3656 55.3554C25.4084 54.076 23.9363 53.3733 22.4193 53.3733C21.7651 53.3733 21.1027 53.5042 20.4697 53.7752L19.5839 54.1547C18.467 54.6331 17.2237 54.5589 16.1713 53.9519C15.1194 53.3445 14.4336 52.3044 14.2894 51.0982L14.1755 50.1415C13.904 47.871 12.1293 46.0963 9.85878 45.8253L8.90206 45.7109C7.69586 45.5667 6.65583 44.8809 6.04838 43.829C5.44139 42.7771 5.36724 41.5333 5.8456 40.4169L6.22508 39.5311C7.12549 37.4295 6.47547 35.0048 4.64535 33.6347L3.87357 33.0574C2.90128 32.3296 2.34373 31.2154 2.34373 30.0005C2.34373 28.7861 2.90128 27.6719 3.87402 26.9441L4.64535 26.3668C6.47593 24.9968 7.12595 22.572 6.22508 20.4704L5.84605 19.5847C5.36769 18.4682 5.44185 17.2244 6.04884 16.1725C6.65629 15.1206 7.69632 14.4349 8.90252 14.2907L9.85924 14.1762C12.1297 13.9052 13.9045 12.1305 14.1755 9.86L14.2899 8.90328C14.4341 7.69708 15.1198 6.65705 16.1717 6.0496C17.2237 5.44216 18.4674 5.36846 19.5839 5.84682L20.4697 6.22584C22.5712 7.12626 24.996 6.4767 26.3661 4.64611L26.9433 3.87479C27.6711 2.9025 28.7853 2.34449 29.9998 2.34449C31.2142 2.34449 32.3284 2.9025 33.0562 3.87479L33.6339 4.64657C35.0035 6.47715 37.4288 7.12671 39.5299 6.2263L40.4156 5.84682C41.5321 5.36846 42.7758 5.44262 43.8278 6.0496C44.8797 6.65705 45.5659 7.69708 45.7096 8.90328L45.8241 9.86C46.0951 12.1305 47.8703 13.9052 50.1403 14.1762L51.097 14.2907C52.3032 14.4349 53.3432 15.1206 53.9507 16.1725C54.5581 17.2244 54.6318 18.4682 54.1539 19.5847L53.7745 20.4704C52.874 22.5725 53.5236 24.9968 55.3542 26.3668L56.1255 26.9441C57.0982 27.6719 57.6558 28.7861 57.6558 30.001C57.6558 31.2154 57.0982 32.3296 56.1255 33.0574Z" fill="black"/>
		<path d="M30 6.81146C26.4647 6.81146 23.0699 7.58691 19.9105 9.11628C19.3278 9.39826 19.0842 10.0991 19.3657 10.6814C19.6477 11.2641 20.349 11.5076 20.9313 11.2256C23.7699 9.85191 26.8208 9.15519 30 9.15519C41.4939 9.15519 50.845 18.5063 50.845 30.0007C50.845 41.4946 41.4939 50.8457 30 50.8457C18.5056 50.8457 9.15449 41.4946 9.15449 30.0007C9.15449 25.2926 10.6857 20.8505 13.5829 17.1541C13.982 16.6446 13.8928 15.9081 13.3833 15.5084C12.8738 15.1093 12.1373 15.199 11.7381 15.708C8.515 19.8215 6.81122 24.7634 6.81122 30.0007C6.81122 42.7868 17.2138 53.1894 30 53.1894C42.7861 53.1894 53.1887 42.7868 53.1887 30.0007C53.1887 17.2141 42.7861 6.81146 30 6.81146Z" fill="black"/>
		<path d="M12.8662 24.0338L11.9736 25.1718C11.5739 25.6813 11.6632 26.4178 12.1722 26.817C12.6817 27.2166 13.4183 27.1278 13.8174 26.6183L14.3077 25.994V33.7444H13.5231C12.8758 33.7444 12.3512 34.269 12.3512 34.9162C12.3512 35.5635 12.8758 36.0881 13.5231 36.0881H17.3958C18.0426 36.0881 18.5677 35.5635 18.5677 34.9162C18.5677 34.269 18.0426 33.7444 17.3958 33.7444H16.6515V24.7571C16.6515 24.1098 16.1264 23.5852 15.4796 23.5852H13.7881C13.4283 23.5852 13.0882 23.7505 12.8662 24.0338Z" fill="#A07052"/>
		<path d="M22.2832 36.0875H22.892C24.8274 36.0875 26.4017 34.5133 26.4017 32.5779V26.8975C26.4017 24.9621 24.827 23.3875 22.892 23.3875H22.2832C20.3477 23.3875 18.7735 24.9621 18.7735 26.8975V32.5779C18.7735 34.5133 20.3477 36.0875 22.2832 36.0875ZM21.1172 26.8975C21.1172 26.2544 21.6405 25.7312 22.2832 25.7312H22.892C23.5347 25.7312 24.0579 26.2544 24.0579 26.8975V32.5779C24.0579 33.2206 23.5347 33.7438 22.892 33.7438H22.2832C21.6405 33.7438 21.1172 33.2206 21.1172 32.5779V26.8975Z" fill="#A07052"/>
		<path d="M31.7268 36.0875C33.6623 36.0875 35.2365 34.5133 35.2365 32.5779V26.8975C35.2365 24.9621 33.6618 23.3875 31.7268 23.3875H31.118C29.1826 23.3875 27.6083 24.9621 27.6083 26.8975V32.5779C27.6083 34.5133 29.1826 36.0875 31.118 36.0875H31.7268ZM29.9521 32.5779V26.8975C29.9521 26.2544 30.4753 25.7312 31.118 25.7312H31.7268C32.3695 25.7312 32.8928 26.2544 32.8928 26.8975V32.5779C32.8928 33.2206 32.3695 33.7438 31.7268 33.7438H31.118C30.4753 33.7438 29.9521 33.221 29.9521 32.5779Z" fill="#A07052"/>
		<path d="M47.2028 23.2464C46.6796 22.8661 45.9467 22.9819 45.5658 23.5051L38.1198 33.7447C37.739 34.2683 37.8548 35.0012 38.3785 35.3816C38.5863 35.5327 38.8275 35.6059 39.0665 35.6059C39.4286 35.6059 39.7861 35.4384 40.0154 35.123L47.4614 24.8834C47.8423 24.3602 47.726 23.6273 47.2028 23.2464Z" fill="#A07052"/>
		<path d="M19.4447 18.7828C19.718 18.7828 19.9926 18.6875 20.2146 18.4939C22.9237 16.1282 26.3986 14.8254 29.9998 14.8254C33.3689 14.8254 36.5462 15.9231 39.1885 17.9995C39.6975 18.3996 40.434 18.3113 40.8341 17.8022C41.2337 17.2937 41.1454 16.5567 40.6368 16.157C37.5771 13.7524 33.899 12.4817 29.9998 12.4817C25.8318 12.4817 21.809 13.99 18.6733 16.7283C18.1858 17.154 18.1355 17.8942 18.5612 18.3818C18.7928 18.6473 19.1178 18.7828 19.4447 18.7828Z" fill="black"/>
		<path d="M19.2288 43.2627C22.2875 45.6668 25.9661 46.9376 29.8653 46.9376C32.5706 46.9376 35.1606 46.3279 37.5639 45.1258C38.1425 44.8365 38.3769 44.1324 38.0876 43.5534C37.7978 42.9748 37.0942 42.7404 36.5152 43.0297C34.4406 44.0679 32.2031 44.5939 29.8653 44.5939C26.4966 44.5939 23.3189 43.4966 20.6767 41.4197C20.1681 41.0201 19.4311 41.1085 19.0315 41.617C18.6314 42.1261 18.7197 42.8626 19.2288 43.2627Z" fill="black"/>
		<path d="M41.5079 41.2585C41.2488 40.8703 40.7635 40.6689 40.3053 40.7604C39.8192 40.8579 39.4365 41.2644 39.3719 41.7565C39.3088 42.2344 39.5569 42.7155 39.9817 42.9426C40.4083 43.171 40.9448 43.1083 41.3087 42.7892C41.7464 42.4042 41.8242 41.7423 41.5079 41.2585Z" fill="black"/>
		<path d="M39.5183 23.0212C37.9976 23.0212 36.7603 24.2581 36.7603 25.7788C36.7603 27.2995 37.9976 28.5368 39.5183 28.5368C41.0385 28.5368 42.2759 27.2995 42.2759 25.7788C42.2759 24.2581 41.0385 23.0212 39.5183 23.0212ZM39.5183 26.1931C39.2899 26.1931 39.104 26.0072 39.104 25.7788C39.104 25.5504 39.2899 25.3645 39.5183 25.3645C39.7467 25.3645 39.9321 25.5504 39.9321 25.7788C39.9321 26.0072 39.7467 26.1931 39.5183 26.1931Z" fill="#A07052"/>
		<path d="M43.2645 32.9216C43.2645 34.4423 44.5018 35.6796 46.022 35.6796C47.5427 35.6796 48.7801 34.4423 48.7801 32.9216C48.7801 31.4009 47.5427 30.1636 46.022 30.1636C44.5018 30.1636 43.2645 31.4009 43.2645 32.9216ZM46.4363 32.9216C46.4363 33.15 46.2509 33.3359 46.0225 33.3359C45.7941 33.3359 45.6082 33.15 45.6082 32.9216C45.6082 32.6932 45.7941 32.5073 46.0225 32.5073C46.2509 32.5073 46.4363 32.6932 46.4363 32.9216Z" fill="#A07052"/>
		<path d="M15.1722 13.2949C15.3608 13.7477 15.8213 14.0397 16.3111 14.0168C16.7945 13.9939 17.2193 13.6634 17.3685 13.2048C17.5191 12.7415 17.3552 12.2123 16.967 11.9171C16.5711 11.6159 16.0181 11.5985 15.6034 11.8727C15.141 12.178 14.9634 12.7854 15.1722 13.2949Z" fill="black"/>
	</g>
</symbol></svg>